<svg width="24" height="24" viewBox="0 0 24 24" fill="none" xmlns="http://www.w3.org/2000/svg">
<path fill-rule="evenodd" clip-rule="evenodd" d="M7.29289 6.29289C7.68342 5.90237 8.31658 5.90237 8.70711 6.29289L13.7071 11.2929C14.0976 11.6834 14.0976 12.3166 13.7071 12.7071L8.70711 17.7071C8.31658 18.0976 7.68342 18.0976 7.29289 17.7071C6.90237 17.3166 6.90237 16.6834 7.29289 16.2929L10.5858 13H1C0.447715 13 0 12.5523 0 12C0 11.4477 0.447715 11 1 11H10.5858L7.29289 7.70711C6.90237 7.31658 6.90237 6.68342 7.29289 6.29289ZM20 10C18.8954 10 18 10.8954 18 12C18 13.1046 18.8954 14 20 14C21.1046 14 22 13.1046 22 12C22 10.8954 21.1046 10 20 10ZM16 12C16 9.79086 17.7909 8 20 8C22.2091 8 24 9.79086 24 12C24 14.2091 22.2091 16 20 16C17.7909 16 16 14.2091 16 12Z" fill="#8D80D1"/>
</svg>
