<svg width="24" height="24" viewBox="0 0 24 24" fill="none" xmlns="http://www.w3.org/2000/svg">
<path fill-rule="evenodd" clip-rule="evenodd" d="M2 9.26362C2 5.6511 4.62572 3 8.04834 3C9.66748 3 11.0203 3.65882 12.0021 4.70159C12.985 3.65736 14.3279 3 15.9517 3C19.3743 3 22 5.6511 22 9.26362C22 11.4216 21.0589 13.4793 19.5184 15.3629C17.9784 17.246 15.7957 19.0117 13.1854 20.6166L13.1707 20.6256L13.1556 20.6342C13.0244 20.7087 12.8602 20.7916 12.6849 20.8588C12.5282 20.9187 12.2773 21 12 21C11.7225 21 11.4715 20.9188 11.3132 20.8576C11.1367 20.7894 10.9706 20.7042 10.836 20.624L10.8243 20.6171L10.8244 20.617C8.20942 19.0121 6.02425 17.2464 4.48294 15.3632C2.94118 13.4794 2 11.4217 2 9.26362ZM8.04834 5C5.77912 5 4 6.7062 4 9.26362C4 10.8179 4.67664 12.4421 6.03065 14.0965C7.38392 15.7499 9.37015 17.3772 11.8639 18.9084C11.9074 18.934 11.9561 18.9589 12.001 18.9784C12.0483 18.9584 12.1019 18.932 12.1541 18.9028C14.6389 17.3734 16.6197 15.7482 17.9702 14.0968C19.3233 12.4423 20 10.818 20 9.26362C20 6.7062 18.2209 5 15.9517 5C14.6382 5 13.6158 5.65594 12.9415 6.75192C12.5086 7.45564 11.4845 7.45089 11.0566 6.74673C10.3996 5.66565 9.36385 5 8.04834 5Z" fill="#8D80D1"/>
</svg>
