<svg width="24" height="24" viewBox="0 0 24 24" fill="none" xmlns="http://www.w3.org/2000/svg">
<path fill-rule="evenodd" clip-rule="evenodd" d="M14.5212 1.60807C15.3319 0.79731 16.6464 0.797309 17.4572 1.60807L22.3919 6.5428C23.2027 7.35356 23.2027 8.66807 22.3919 9.47883L9.25821 22.6126C9.01014 22.8606 8.67367 23 8.32283 23H2.32283C1.59225 23 1 22.4077 1 21.6772V15.6772C1 15.3263 1.13937 14.9899 1.38745 14.7418L14.5212 1.60807ZM16.043 3.02229C16.0133 2.99257 15.9651 2.99257 15.9354 3.02229L14.1751 4.78254L19.2175 9.82487L20.9777 8.06462C21.0074 8.03491 21.0074 7.98673 20.9777 7.95701L16.043 3.02229ZM17.8032 11.2391L12.7609 6.19675L3 15.9577V21H8.04233L17.8032 11.2391ZM13.468 10.532C13.8585 10.9225 13.8585 11.5557 13.468 11.9462L8.08756 17.3267C7.69704 17.7172 7.06387 17.7172 6.67335 17.3267C6.28283 16.9361 6.28283 16.303 6.67335 15.9124L12.0538 10.532C12.4443 10.1415 13.0775 10.1415 13.468 10.532Z" fill="#8D80D1"/>
</svg>
