<svg width="24" height="24" viewBox="0 0 24 24" fill="none" xmlns="http://www.w3.org/2000/svg">
<path fill-rule="evenodd" clip-rule="evenodd" d="M13 6.08072V9.95458L12.0988 10.044C8.5266 10.3986 5.56837 12.8439 4.46437 16.1386C6.59874 14.5505 9.30036 13.7313 12.0973 14.0048L13 14.0931V17.9195L20.3992 12.0001L13 6.08072ZM11 5.04041C11 3.78265 12.4549 3.0834 13.437 3.86911L22.1367 10.8288C22.8873 11.4293 22.8873 12.5709 22.1367 13.1714L13.437 20.1311C12.4549 20.9168 11 20.2175 11 18.9598V15.953C8.22923 15.9636 5.64366 17.2668 3.96762 19.3818C3.34772 20.164 1.97169 19.7868 2.00492 18.668C2.16068 13.4241 5.98471 9.10256 11 8.18107V5.04041Z" fill="#8D80D1"/>
</svg>
